<?xml version="1.0" encoding="UTF-8"?>
<svg version="1.1" xmlns="http://www.w3.org/2000/svg" width="491" height="593">
<path d="M0 0 C162.03 0 324.06 0 491 0 C491 195.69 491 391.38 491 593 C328.97 593 166.94 593 0 593 C0 397.31 0 201.62 0 0 Z " fill="#FEFEFE" transform="translate(0,0)"/>
<path d="M0 0 C162.03 0 324.06 0 491 0 C491 195.69 491 391.38 491 593 C328.97 593 166.94 593 0 593 C0 397.31 0 201.62 0 0 Z M223.625 22.25 C222.39563721 22.37149414 221.16627441 22.49298828 219.8996582 22.61816406 C213.42696789 23.34324077 207.98346767 24.44679393 202 27 C199.60723502 27.78030581 197.21139166 28.55123776 194.8125 29.3125 C184.09583939 32.83675306 174.24748617 37.76721516 164.375 43.1875 C163.59213623 43.61571045 162.80927246 44.0439209 162.00268555 44.48510742 C161.26703369 44.89607666 160.53138184 45.3070459 159.7734375 45.73046875 C159.11778809 46.09551514 158.46213867 46.46056152 157.78662109 46.83666992 C155.92482261 48.04895057 154.56194236 49.42945836 153 51 C151.33209258 51.94841794 149.66314162 52.89515773 147.984375 53.82421875 C144.46678721 55.90845876 141.0284106 58.24689945 138 61 C138 61.66 138 62.32 138 63 C137.401875 63.28875 136.80375 63.5775 136.1875 63.875 C133.80672208 65.04742026 133.80672208 65.04742026 131 67 C131 67.66 131 68.32 131 69 C130.443125 69.226875 129.88625 69.45375 129.3125 69.6875 C126.34698625 71.37062943 124.38890463 73.56304269 122 76 C121.03734993 76.94364932 120.07247338 77.88503228 119.10546875 78.82421875 C118.13278804 79.7786209 117.16013192 80.73304812 116.1875 81.6875 C115.68541016 82.17283203 115.18332031 82.65816406 114.66601562 83.15820312 C113.40582727 84.40124606 112.19808956 85.69699892 111 87 C111 87.66 111 88.32 111 89 C110.34 89 109.68 89 109 89 C105.97482091 92.05558423 105.97482091 92.05558423 105 96 C104.34 96 103.68 96 103 96 C101.0988937 98.29475432 99.31928224 100.5976665 97.5625 103 C96.76005859 104.08716309 96.76005859 104.08716309 95.94140625 105.19628906 C94.28291018 107.45618553 92.63843527 109.72552466 91 112 C90.52288574 112.66193359 90.04577148 113.32386719 89.55419922 114.00585938 C71.00964248 139.92992088 55.8670398 168.44152988 44 198 C43.41825382 199.41157585 42.83623158 200.82303797 42.25390625 202.234375 C25.262791 244.05039362 14.60067876 288.12427978 8.46923828 332.76904297 C7.99468669 336.03658498 7.43772239 339.28243003 6.87109375 342.53515625 C3.92900939 360.66897986 3.50938797 378.81324771 3.39167786 397.14955139 C3.37533255 399.14686452 3.3466685 401.14406471 3.31774902 403.14123535 C2.9833571 429.56317559 6.36142789 454.97905738 18 479 C18.51602783 480.07145264 18.51602783 480.07145264 19.04248047 481.16455078 C31.56018156 506.50924813 52.95596168 523.85444427 79 534 C79.86496094 534.33773437 80.72992188 534.67546875 81.62109375 535.0234375 C100.42386937 541.79377738 124.93306134 541.55659821 144 536 C145.20462891 535.65340332 145.20462891 535.65340332 146.43359375 535.29980469 C158.62160799 531.70044684 169.81962057 527.00113715 181 521 C182.99681678 519.99365874 184.99573443 518.99142297 187 518 C187 517.34 187 516.68 187 516 C187.52464844 515.9278125 188.04929688 515.855625 188.58984375 515.78125 C192.02104223 514.66903007 194.68431369 512.61019928 197.5625 510.5 C198.48796631 509.83049316 198.48796631 509.83049316 199.43212891 509.14746094 C204.26820387 505.61556619 208.91941599 501.88689625 213.51171875 498.04296875 C216.46061312 495.62182 219.51680573 493.38597432 222.63671875 491.19140625 C223.08660156 490.79824219 223.53648437 490.40507812 224 490 C224 489.34 224 488.68 224 488 C224.88860718 487.60687622 224.88860718 487.60687622 225.79516602 487.20581055 C228.11534463 485.93691871 229.49785746 484.64875297 231.27734375 482.70703125 C231.87353516 482.07732422 232.46972656 481.44761719 233.08398438 480.79882812 C234.32371076 479.47026993 235.555473 478.13423695 236.77929688 476.79101562 C238.4545445 475.03625247 240.03796643 473.42772204 242 472 C244.87890625 471.94921875 244.87890625 471.94921875 247 473 C247.33 473.66 247.66 474.32 248 475 C248.66 475 249.32 475 250 475 C250 475.66 250 476.32 250 477 C250.66 477 251.32 477 252 477 C252 477.66 252 478.32 252 479 C253.64351457 480.36176922 255.31522656 481.68962066 257 483 C258.67356789 484.65973675 260.3394947 486.32719466 262 488 C292.68471861 517.25866598 330.6578352 539.15314022 373.875 539.4375 C375.06270996 539.44773193 376.25041992 539.45796387 377.47412109 539.46850586 C385.95879223 539.38430683 393.78587251 538.08640661 402 536 C402.7420166 535.81203857 403.4840332 535.62407715 404.24853516 535.43041992 C421.814132 530.64340967 436.29571087 520.82683854 449 508 C449.64324219 507.3915625 450.28648437 506.783125 450.94921875 506.15625 C454.25173519 503.00958265 456.7632966 500.53457912 458 496 C458.66 496 459.32 496 460 496 C469.69261479 479.30849959 477.50993563 463.18549511 481 444 C481.13680176 443.25927246 481.27360352 442.51854492 481.41455078 441.75537109 C489.54126966 395.55126363 482.27133743 346.97241223 474.06364441 301.32591248 C473.33450152 297.1990147 472.76067165 293.11862475 472.41796875 288.9375 C472.41688549 284.99787503 472.41688549 284.99787503 470 283 C469.41919613 280.97853887 468.92866309 278.93078363 468.484375 276.875 C468.2059375 275.62001709 467.9275 274.36503418 467.640625 273.07202148 C467.49560547 272.407258 467.35058594 271.74249451 467.20117188 271.05758667 C464.67301769 259.52784239 461.78114801 248.29209499 457.76806641 237.18115234 C456.93180585 234.80634249 456.15477609 232.41724578 455.38671875 230.01953125 C451.22474235 217.06416983 446.32488134 204.51895443 441 192 C440.52796143 190.88020752 440.52796143 190.88020752 440.04638672 189.73779297 C436.08675489 180.36313213 431.76553289 171.20890723 427.11083984 162.15966797 C426.33700204 160.65519122 425.56676552 159.14885898 424.79931641 157.64111328 C420.23123521 148.67824142 415.60544978 139.96519217 409.86328125 131.69140625 C407.99069282 128.98655629 406.23953836 126.22940017 404.5 123.4375 C401.43089781 118.57632434 398.11771779 113.9331824 394.69921875 109.3125 C393.42148943 107.5736132 392.19696019 105.79544028 391 104 C390.34 104 389.68 104 389 104 C388.773125 103.29875 388.54625 102.5975 388.3125 101.875 C386.66158712 98.25871465 384.7091165 95.91230024 382 93 C381.34 93 380.68 93 380 93 C379.63068359 92.15501953 379.63068359 92.15501953 379.25390625 91.29296875 C372.71315092 79.33214826 359.53000052 69.31686788 349 61 C348.04738281 60.21882813 347.09476562 59.43765625 346.11328125 58.6328125 C331.33813053 46.78999003 314.38190542 36.60251534 296.4375 30.4375 C295.15311035 29.99253174 295.15311035 29.99253174 293.84277344 29.53857422 C270.84485589 21.76074137 247.73828739 19.80621956 223.625 22.25 Z " fill="#FB5B69" transform="translate(0,0)"/>
<path d="M0 0 C4.09637952 2.61427236 7.52156573 5.61894025 11 9 C11.83917969 9.77472656 12.67835938 10.54945312 13.54296875 11.34765625 C25.66109286 22.90214668 34.36591166 36.78927323 43 51 C43.37366699 51.60924316 43.74733398 52.21848633 44.13232422 52.84619141 C50.99039395 64.09684002 56.46119175 76.0632772 62 88 C62.54140625 89.15991455 62.54140625 89.15991455 63.09375 90.34326172 C73.59607843 112.95301076 82.07543845 136.40651023 90 160.02099609 C90.61884719 161.86454428 91.2428256 163.70638942 91.875 165.54541016 C93.26994824 169.6282493 94.46793302 173.69235308 95.47265625 177.88769531 C96.74490399 182.98375433 98.3016265 188.01021054 99.7890625 193.046875 C101.27393125 198.16142292 102.48341142 203.23963391 103.47094727 208.47167969 C104.02184822 211.10441168 104.72253511 213.65724022 105.46484375 216.2421875 C107.29691853 222.7897533 108.42472343 229.4275518 109.5625 236.125 C109.97864795 238.5445847 110.39657781 240.96386369 110.81640625 243.3828125 C111.11550903 245.11023682 111.11550903 245.11023682 111.4206543 246.87255859 C111.88891227 249.4003229 112.43350424 251.86694747 113.0546875 254.359375 C114.61879745 261.15937631 114.97183341 268.18681331 115.5625 275.125 C115.688947 276.5469201 115.81589739 277.96879553 115.94335938 279.390625 C117.56122509 297.63304424 118.24945659 315.68401681 118 334 C117.99274902 334.7748877 117.98549805 335.54977539 117.97802734 336.34814453 C117.57418489 364.37754844 110.49977018 396.98616519 91.05859375 418.109375 C86.28750132 422.62022603 81.27498842 425.14917534 75 427 C74.32710937 427.21011719 73.65421875 427.42023438 72.9609375 427.63671875 C63.40374907 429.64778736 51.41493881 424.7498576 43.3125 419.9375 C41.86417109 418.97442317 40.42527917 417.99687156 39 417 C38.36191406 416.60425781 37.72382813 416.20851563 37.06640625 415.80078125 C35.66835708 414.93224724 34.32501842 413.97632936 33 413 C33 412.34 33 411.68 33 411 C32.33226562 410.814375 31.66453125 410.62875 30.9765625 410.4375 C26.71538626 408.37960911 23.74489524 405.27774967 20.375 402 C19.0512311 400.72734186 17.72577556 399.45643519 16.3984375 398.1875 C15.81755371 397.62417969 15.23666992 397.06085938 14.63818359 396.48046875 C12.86036253 394.80121856 12.86036253 394.80121856 10 393 C10 392.34 10 391.68 10 391 C9.34 391 8.68 391 8 391 C6.45703125 389.71484375 6.45703125 389.71484375 4.8125 387.9375 C4.26207031 387.36902344 3.71164062 386.80054688 3.14453125 386.21484375 C1.39412255 382.82753408 2.06790956 380.63004 3 377 C4.75 374.1484375 4.75 374.1484375 7 371.375 C7.80824219 370.34890625 8.61648438 369.3228125 9.44921875 368.265625 C10.08029541 367.46801758 10.08029541 367.46801758 10.72412109 366.65429688 C12.85992429 363.88502736 14.83591227 361.00905149 16.8125 358.125 C17.87404297 356.58199219 17.87404297 356.58199219 18.95703125 355.0078125 C37.23216225 328.10178789 54.91685324 297.25805825 61 265 C61.17152588 264.2160083 61.34305176 263.4320166 61.51977539 262.62426758 C63.10263678 254.95563755 63.33300963 247.50167019 63.3125 239.6875 C63.32861328 238.47126953 63.34472656 237.25503906 63.36132812 236.00195312 C63.36786708 223.68910893 61.17575653 212.19082493 56 201 C55.5565625 200.01 55.113125 199.02 54.65625 198 C51.53912474 191.3678186 48.04236213 186.2715604 43 181 C41.72408843 179.52521152 40.4531551 178.04609986 39.1875 176.5625 C36.91910683 173.86575585 36.91910683 173.86575585 34 172 C34 171.34 34 170.68 34 170 C33.30261719 169.74992188 32.60523438 169.49984375 31.88671875 169.2421875 C28.61237625 167.83320115 25.80677079 166.05796409 22.8125 164.125 C14.02716057 158.61435375 5.7270333 155.73061722 -4.41015625 153.61328125 C-7 153 -7 153 -8 152 C-32.50571938 150.96590193 -57.97213544 154.50473011 -77.421875 170.7734375 C-79.1802185 172.14007082 -80.98515662 173.06265982 -83 174 C-83 174.66 -83 175.32 -83 176 C-83.66 176.639375 -84.32 177.27875 -85 177.9375 C-92.60592721 185.30641532 -97.61683044 194.47556553 -102 204 C-102.556875 205.134375 -103.11375 206.26875 -103.6875 207.4375 C-107.44848142 217.64587815 -108.55347688 227.67656055 -108.5 238.5 C-108.49645508 239.80501465 -108.49291016 241.1100293 -108.48925781 242.45458984 C-108.29654564 253.82321174 -106.46828044 264.20364858 -103 275 C-102.55358154 276.407052 -102.55358154 276.407052 -102.09814453 277.8425293 C-99.81404277 284.87617567 -97.22168387 291.73839767 -94.375 298.5625 C-93.94477539 299.59391113 -93.51455078 300.62532227 -93.07128906 301.68798828 C-87.42607029 314.98520476 -80.71563802 327.78357314 -73 340 C-72.24203125 341.22589844 -72.24203125 341.22589844 -71.46875 342.4765625 C-65.48353148 352.0472657 -59.24150326 361.61050938 -52.29296875 370.515625 C-51.8738623 371.05453369 -51.45475586 371.59344238 -51.02294922 372.14868164 C-49.88789624 373.59165036 -48.73554407 375.02096382 -47.58203125 376.44921875 C-45.80363623 379.31660627 -45.45424699 380.69240599 -46 384 C-48.375 386.8125 -48.375 386.8125 -51 389 C-51.66 389 -52.32 389 -53 389 C-53 389.66 -53 390.32 -53 391 C-53.66 391 -54.32 391 -55 391 C-55 391.66 -55 392.32 -55 393 C-55.66 393 -56.32 393 -57 393 C-57 393.66 -57 394.32 -57 395 C-57.66 395 -58.32 395 -59 395 C-59.22945313 395.56589844 -59.45890625 396.13179688 -59.6953125 396.71484375 C-61.34440497 399.60322427 -63.37733433 401.37241037 -65.875 403.5625 C-66.73867187 404.32691406 -67.60234375 405.09132813 -68.4921875 405.87890625 C-74.54696133 411 -74.54696133 411 -77 411 C-77 411.66 -77 412.32 -77 413 C-78.97540756 414.39121691 -80.92647779 415.64609894 -83 416.875 C-83.59506348 417.23287598 -84.19012695 417.59075195 -84.80322266 417.95947266 C-96.71837478 425.06068333 -107.63444884 429.26663414 -121.7421875 426.453125 C-134.18235501 422.24016092 -142.24978228 411.24767863 -148 400 C-154.57049618 385.94432141 -157.99962837 371.51950505 -159.60546875 356.1328125 C-159.81121502 353.10094346 -159.81121502 353.10094346 -161 351 C-162.0633548 340.97134945 -162.16134022 330.88766712 -162.125 320.8125 C-162.12378143 320.14755524 -162.12256287 319.48261047 -162.12130737 318.79751587 C-162.10303534 310.25425432 -161.9759971 301.72166505 -161.5625 293.1875 C-161.52334473 292.37063721 -161.48418945 291.55377441 -161.44384766 290.7121582 C-161.13282263 285.26564526 -161.13282263 285.26564526 -160 283 C-159.82615026 281.55524873 -159.70255881 280.1042747 -159.60546875 278.65234375 C-159.50588867 277.29701538 -159.50588867 277.29701538 -159.40429688 275.91430664 C-159.29698242 274.44078735 -159.29698242 274.44078735 -159.1875 272.9375 C-158.4827152 264.07905983 -157.41644856 255.33532158 -156 246.5625 C-155.75092896 245.01067017 -155.75092896 245.01067017 -155.49682617 243.42749023 C-154.57158865 237.86651718 -153.41125167 232.45605249 -152 227 C-151.66727401 225.23285531 -151.35230151 223.46218928 -151.0625 221.6875 C-150.24734168 217.05128705 -149.10743523 212.59415063 -147.81469727 208.07104492 C-146.99051574 204.96424857 -146.3428839 201.85898866 -145.71484375 198.70703125 C-143.93489491 190.32554853 -141.52741741 182.18268539 -139 174 C-138.76078827 173.22131561 -138.52157654 172.44263123 -138.27511597 171.64035034 C-124.31268823 126.32563795 -106.29194811 81.25551103 -81 41 C-80.15308594 39.59427734 -80.15308594 39.59427734 -79.2890625 38.16015625 C-75.42920492 31.84484936 -71.07288141 26.30136336 -66.234375 20.7265625 C-63.9539508 18.08437722 -63.9539508 18.08437722 -62.3359375 15.1875 C-61 13 -61 13 -58.875 12.375 C-57.946875 12.189375 -57.946875 12.189375 -57 12 C-56.505 10.515 -56.505 10.515 -56 9 C-54.07067049 7.3981255 -52.18791814 5.9709227 -50.125 4.5625 C-49.54508301 4.16289063 -48.96516602 3.76328125 -48.36767578 3.3515625 C-43.21515765 -0.07876335 -37.94054085 -2.26130512 -32 -4 C-21.64703286 -7.45098905 -9.62090312 -4.57018458 0 0 Z " fill="#FA5B6A" transform="translate(266,62)"/>
<path d="M0 0 C12.48630495 10.5140443 17.32222842 23.02478321 18.78125 39.1875 C19.58473717 55.26886 15.38749043 71.87253807 8.4296875 86.29296875 C7.65867052 88.04288784 6.88784094 89.79288952 6.1171875 91.54296875 C1.35631852 101.87062183 -3.47130111 112.11602627 -9.83203125 121.5703125 C-11.29208135 123.85717749 -12.60223698 126.14696353 -13.8984375 128.52734375 C-16.57184527 133.38703186 -19.54766126 137.9990857 -22.6328125 142.60546875 C-23.14908203 143.38986328 -23.66535156 144.17425781 -24.19726562 144.98242188 C-29.60701238 153.09359631 -29.60701238 153.09359631 -32.5703125 155.29296875 C-34.55859375 155.3984375 -34.55859375 155.3984375 -36.5703125 154.29296875 C-38.61328125 151.84375 -38.61328125 151.84375 -40.7578125 148.60546875 C-41.14582031 148.02458496 -41.53382813 147.44370117 -41.93359375 146.84521484 C-43.15847709 145.00245688 -44.36542861 143.14885106 -45.5703125 141.29296875 C-46.32667429 140.14313139 -47.08318143 138.99338962 -47.83984375 137.84375 C-50.12329782 134.35167277 -52.35692242 130.8297996 -54.5703125 127.29296875 C-54.94687988 126.69226563 -55.32344727 126.0915625 -55.71142578 125.47265625 C-61.24893411 116.58617254 -66.19306576 107.50479767 -70.71972656 98.06347656 C-71.4576404 96.52749747 -72.21175965 94.99932394 -72.96875 93.47265625 C-77.01216952 85.05101178 -79.81673092 76.2007638 -82.5703125 67.29296875 C-82.91578125 66.22433594 -83.26125 65.15570313 -83.6171875 64.0546875 C-87.53660148 50.09639716 -87.85759926 32.51079603 -81.5703125 19.29296875 C-81.23128906 18.44089844 -80.89226562 17.58882813 -80.54296875 16.7109375 C-77.45931868 9.56696528 -72.52546964 4.24681628 -66.5703125 -0.70703125 C-65.9103125 -0.70703125 -65.2503125 -0.70703125 -64.5703125 -0.70703125 C-64.5703125 -1.36703125 -64.5703125 -2.02703125 -64.5703125 -2.70703125 C-58.31409731 -6.36415704 -52.71943156 -9.37414465 -45.5703125 -10.70703125 C-44.6421875 -10.91328125 -43.7140625 -11.11953125 -42.7578125 -11.33203125 C-26.98974897 -13.18709755 -12.560754 -9.89875803 0 0 Z " fill="#FA5B6A" transform="translate(277.5703125,258.70703125)"/>
<path d="M0 0 C7.62891121 -0.58784419 14.3469218 0.01014313 21.625 2.25 C22.65463867 2.55683716 22.65463867 2.55683716 23.70507812 2.86987305 C27.63655472 4.16582963 29.92966714 5.35745948 32 9 C31.28585937 8.71253906 30.57171875 8.42507812 29.8359375 8.12890625 C28.90007812 7.75636719 27.96421875 7.38382812 27 7 C26.14664062 6.65839844 25.29328125 6.31679688 24.4140625 5.96484375 C16.18561544 2.93391717 8.69838989 2.23766093 0 2 C0 1.34 0 0.68 0 0 Z " fill="#DB737B" transform="translate(237,57)"/>
<path d="M0 0 C0 0.66 0 1.32 0 2 C-0.52956299 2.28721924 -1.05912598 2.57443848 -1.60473633 2.87036133 C-4.01030431 4.17901352 -6.41140832 5.49565414 -8.8125 6.8125 C-9.64587891 7.26431641 -10.47925781 7.71613281 -11.33789062 8.18164062 C-12.14033203 8.62314453 -12.94277344 9.06464844 -13.76953125 9.51953125 C-14.50792236 9.92276611 -15.24631348 10.32600098 -16.00708008 10.74145508 C-17.96999729 11.98105305 -19.43432572 13.29573214 -21 15 C-21.99 14.67 -22.98 14.34 -24 14 C-4.76595745 0 -4.76595745 0 0 0 Z " fill="#DC7D86" transform="translate(174,37)"/>
<path d="M0 0 C8.3523931 1.16687845 16.58836427 6.62200075 22 13 C17.80848353 11.48792023 14.21625815 9.4138246 10.4375 7.0625 C9.32246094 6.37285156 8.20742188 5.68320313 7.05859375 4.97265625 C4.61701919 3.3979498 2.28887243 1.78520857 0 0 Z " fill="#DE7D8B" transform="translate(278,219)"/>
<path d="M0 0 C6.73469382 3.01288934 11.23491579 8.82526189 15 15 C14.67 15.66 14.34 16.32 14 17 C12.34049873 15.10342712 10.68126168 13.20663327 9.0234375 11.30859375 C7.67963494 9.77541361 6.33070078 8.24671536 4.9765625 6.72265625 C4.34492188 6.00980469 3.71328125 5.29695312 3.0625 4.5625 C2.47597656 3.90378906 1.88945312 3.24507812 1.28515625 2.56640625 C0 1 0 1 0 0 Z " fill="#DD797F" transform="translate(302,234)"/>
<path d="M0 0 C0 0.66 0 1.32 0 2 C-1.609375 3.515625 -1.609375 3.515625 -3.75 5.25 C-7.284042 8.23889722 -9.6702844 11.02006918 -12 15 C-12.33 14.01 -12.66 13.02 -13 12 C-11.70703125 10.09765625 -11.70703125 10.09765625 -9.8125 8.0625 C-9.16539062 7.36253906 -8.51828125 6.66257812 -7.8515625 5.94140625 C-7.24054688 5.30074219 -6.62953125 4.66007812 -6 4 C-5.236875 3.175 -4.47375 2.35 -3.6875 1.5 C-2 0 -2 0 0 0 Z " fill="#E07A81" transform="translate(213,258)"/>
<path d="M0 0 C10.24714829 8.57414449 10.24714829 8.57414449 14 13 C14 13.66 14 14.32 14 15 C10.61152855 13.87050952 9.80305816 12.87716782 7.5625 10.1875 C5.62032666 7.88734132 3.7217084 5.72884408 1.5625 3.625 C0 2 0 2 0 0 Z " fill="#DD8690" transform="translate(362,71)"/>
<path d="M0 0 C0.66 0 1.32 0 2 0 C0.50923566 3.2826932 -1.38620321 5.93077441 -3.625 8.75 C-4.57246094 9.94882813 -4.57246094 9.94882813 -5.5390625 11.171875 C-6.02117187 11.77515625 -6.50328125 12.3784375 -7 13 C-7 9.19794574 -5.7999031 7.88843439 -3.625 4.8125 C-2.99851562 3.91144531 -2.37203125 3.01039062 -1.7265625 2.08203125 C-1.15679687 1.39496094 -0.58703125 0.70789063 0 0 Z " fill="#DE838B" transform="translate(98,100)"/>
<path d="M0 0 C0.99 0.33 1.98 0.66 3 1 C0.36 3.97 -2.28 6.94 -5 10 C-5.66 9.67 -6.32 9.34 -7 9 C-6.566875 8.608125 -6.13375 8.21625 -5.6875 7.8125 C-3.73625325 5.71671645 -2.43131962 3.47227935 -1 1 C-0.67 0.67 -0.34 0.34 0 0 Z " fill="#DE6B75" transform="translate(206,74)"/>
<path d="M0 0 C7.26153846 0.36923077 7.26153846 0.36923077 11 3.5625 C11.99 4.7690625 11.99 4.7690625 13 6 C12.34 5.731875 11.68 5.46375 11 5.1875 C7.35060933 3.74294953 3.67754567 2.37128822 0 1 C0 0.67 0 0.34 0 0 Z " fill="#DF8491" transform="translate(256,60)"/>
<path d="M0 0 C0.99 0 1.98 0 3 0 C5.1875 3 5.1875 3 7 6 C6.67 6.66 6.34 7.32 6 8 C4.9970458 6.85675161 3.99770973 5.71032809 3 4.5625 C2.443125 3.92441406 1.88625 3.28632813 1.3125 2.62890625 C0 1 0 1 0 0 Z " fill="#DE6A71" transform="translate(310,243)"/>
</svg>
